<mxfile host="app.diagrams.net" agent="Mozilla/5.0 (Macintosh; Intel Mac OS X 10_15_7) AppleWebKit/537.36 (KHTML, like Gecko) Chrome/132.0.0.0 Safari/537.36" version="26.0.11">
  <diagram name="第 1 页" id="46mAydpTfXo8omcTU5pi">
    <mxGraphModel dx="465" dy="307" grid="1" gridSize="10" guides="1" tooltips="1" connect="1" arrows="1" fold="1" page="1" pageScale="1" pageWidth="827" pageHeight="1169" math="0" shadow="0">
      <root>
        <mxCell id="0" />
        <mxCell id="1" parent="0" />
        <mxCell id="FrjA3dRTfeve2aG1nO1z-26" value="" style="rounded=0;whiteSpace=wrap;html=1;" vertex="1" parent="1">
          <mxGeometry x="212" y="230" width="370" height="80" as="geometry" />
        </mxCell>
        <mxCell id="FrjA3dRTfeve2aG1nO1z-1" value="" style="rounded=1;whiteSpace=wrap;html=1;fillColor=#bac8d3;strokeColor=#23445d;" vertex="1" parent="1">
          <mxGeometry x="320" y="80" width="120" height="60" as="geometry" />
        </mxCell>
        <mxCell id="FrjA3dRTfeve2aG1nO1z-2" value="" style="rounded=1;whiteSpace=wrap;html=1;fillColor=#bac8d3;strokeColor=#23445d;" vertex="1" parent="1">
          <mxGeometry x="330" y="90" width="120" height="60" as="geometry" />
        </mxCell>
        <mxCell id="FrjA3dRTfeve2aG1nO1z-3" value="" style="rounded=1;whiteSpace=wrap;html=1;fillColor=#bac8d3;strokeColor=#23445d;" vertex="1" parent="1">
          <mxGeometry x="340" y="100" width="120" height="60" as="geometry" />
        </mxCell>
        <mxCell id="FrjA3dRTfeve2aG1nO1z-4" value="" style="rounded=1;whiteSpace=wrap;html=1;rotation=90;fillColor=#b1ddf0;strokeColor=#10739e;" vertex="1" parent="1">
          <mxGeometry x="360" y="115" width="25.5" height="10" as="geometry" />
        </mxCell>
        <mxCell id="FrjA3dRTfeve2aG1nO1z-9" value="" style="rounded=1;whiteSpace=wrap;html=1;rotation=90;fillColor=#d0cee2;strokeColor=#56517e;" vertex="1" parent="1">
          <mxGeometry x="377.25" y="115" width="25.5" height="10" as="geometry" />
        </mxCell>
        <mxCell id="FrjA3dRTfeve2aG1nO1z-10" value="" style="rounded=1;whiteSpace=wrap;html=1;rotation=90;fillColor=#d5e8d4;strokeColor=#82b366;" vertex="1" parent="1">
          <mxGeometry x="394" y="115" width="25.5" height="10" as="geometry" />
        </mxCell>
        <mxCell id="FrjA3dRTfeve2aG1nO1z-11" value="" style="rounded=1;whiteSpace=wrap;html=1;rotation=90;fillColor=#ffe6cc;strokeColor=#d79b00;" vertex="1" parent="1">
          <mxGeometry x="410" y="115" width="25.5" height="10" as="geometry" />
        </mxCell>
        <mxCell id="FrjA3dRTfeve2aG1nO1z-12" value="" style="ellipse;whiteSpace=wrap;html=1;aspect=fixed;" vertex="1" parent="1">
          <mxGeometry x="350" y="115" width="10" height="10" as="geometry" />
        </mxCell>
        <mxCell id="FrjA3dRTfeve2aG1nO1z-13" value="" style="ellipse;whiteSpace=wrap;html=1;aspect=fixed;" vertex="1" parent="1">
          <mxGeometry x="440" y="115" width="10" height="10" as="geometry" />
        </mxCell>
        <mxCell id="FrjA3dRTfeve2aG1nO1z-14" value="&lt;font style=&quot;font-size: 10px;&quot; face=&quot;Times New Roman&quot;&gt;Mysql Routing&lt;/font&gt;&lt;div&gt;&lt;font style=&quot;font-size: 10px;&quot;&gt;&amp;nbsp; &amp;nbsp; &amp;nbsp; &amp;nbsp; &amp;nbsp; &amp;nbsp; 数据库路由&lt;/font&gt;&lt;/div&gt;" style="text;html=1;align=center;verticalAlign=middle;whiteSpace=wrap;rounded=0;" vertex="1" parent="1">
          <mxGeometry x="356" y="131" width="87" height="30" as="geometry" />
        </mxCell>
        <mxCell id="FrjA3dRTfeve2aG1nO1z-15" value="" style="shape=cylinder3;whiteSpace=wrap;html=1;boundedLbl=1;backgroundOutline=1;size=12.672131147540995;fillColor=#dae8fc;strokeColor=#6c8ebf;" vertex="1" parent="1">
          <mxGeometry x="229.5" y="235" width="60" height="60" as="geometry" />
        </mxCell>
        <mxCell id="FrjA3dRTfeve2aG1nO1z-16" value="" style="shape=cylinder3;whiteSpace=wrap;html=1;boundedLbl=1;backgroundOutline=1;size=12.672131147540995;fillColor=#dae8fc;strokeColor=#6c8ebf;" vertex="1" parent="1">
          <mxGeometry x="409.5" y="235" width="60" height="60" as="geometry" />
        </mxCell>
        <mxCell id="FrjA3dRTfeve2aG1nO1z-17" value="" style="shape=cylinder3;whiteSpace=wrap;html=1;boundedLbl=1;backgroundOutline=1;size=12.672131147540995;fillColor=#dae8fc;strokeColor=#6c8ebf;" vertex="1" parent="1">
          <mxGeometry x="319" y="235" width="60" height="60" as="geometry" />
        </mxCell>
        <mxCell id="FrjA3dRTfeve2aG1nO1z-19" value="" style="shape=cylinder3;whiteSpace=wrap;html=1;boundedLbl=1;backgroundOutline=1;size=12.672131147540995;fillColor=#dae8fc;strokeColor=#6c8ebf;" vertex="1" parent="1">
          <mxGeometry x="508.5" y="235" width="60" height="60" as="geometry" />
        </mxCell>
        <mxCell id="FrjA3dRTfeve2aG1nO1z-20" style="edgeStyle=orthogonalEdgeStyle;rounded=0;orthogonalLoop=1;jettySize=auto;html=1;entryX=0;entryY=0.5;entryDx=0;entryDy=0;entryPerimeter=0;endArrow=none;startFill=0;dashed=1;dashPattern=1 4;strokeWidth=2;" edge="1" parent="1">
          <mxGeometry relative="1" as="geometry">
            <mxPoint x="471.4999999999999" y="265" as="sourcePoint" />
            <mxPoint x="510.4999999999999" y="265" as="targetPoint" />
          </mxGeometry>
        </mxCell>
        <mxCell id="FrjA3dRTfeve2aG1nO1z-22" value="&lt;font style=&quot;font-size: 9px;&quot; face=&quot;Times New Roman&quot;&gt;MySQL&lt;/font&gt;" style="text;html=1;align=center;verticalAlign=middle;whiteSpace=wrap;rounded=0;" vertex="1" parent="1">
          <mxGeometry x="220" y="231" width="60" height="30" as="geometry" />
        </mxCell>
        <mxCell id="FrjA3dRTfeve2aG1nO1z-23" value="&lt;font style=&quot;font-size: 9px;&quot; face=&quot;Times New Roman&quot;&gt;MySQL&lt;/font&gt;" style="text;html=1;align=center;verticalAlign=middle;whiteSpace=wrap;rounded=0;" vertex="1" parent="1">
          <mxGeometry x="500" y="231" width="60" height="30" as="geometry" />
        </mxCell>
        <mxCell id="FrjA3dRTfeve2aG1nO1z-24" value="&lt;font style=&quot;font-size: 9px;&quot; face=&quot;Times New Roman&quot;&gt;MySQL&lt;/font&gt;" style="text;html=1;align=center;verticalAlign=middle;whiteSpace=wrap;rounded=0;" vertex="1" parent="1">
          <mxGeometry x="310" y="231" width="60" height="30" as="geometry" />
        </mxCell>
        <mxCell id="FrjA3dRTfeve2aG1nO1z-25" value="&lt;font style=&quot;font-size: 9px;&quot; face=&quot;Times New Roman&quot;&gt;MySQL&lt;/font&gt;" style="text;html=1;align=center;verticalAlign=middle;whiteSpace=wrap;rounded=0;" vertex="1" parent="1">
          <mxGeometry x="400" y="231" width="60" height="30" as="geometry" />
        </mxCell>
        <mxCell id="FrjA3dRTfeve2aG1nO1z-27" value="&lt;font style=&quot;font-size: 9px;&quot;&gt;分片1&lt;/font&gt;" style="text;html=1;align=center;verticalAlign=middle;whiteSpace=wrap;rounded=0;" vertex="1" parent="1">
          <mxGeometry x="229.5" y="286" width="60" height="30" as="geometry" />
        </mxCell>
        <mxCell id="FrjA3dRTfeve2aG1nO1z-28" value="&lt;font style=&quot;font-size: 9px;&quot;&gt;分片2&lt;/font&gt;" style="text;html=1;align=center;verticalAlign=middle;whiteSpace=wrap;rounded=0;" vertex="1" parent="1">
          <mxGeometry x="319" y="286" width="60" height="30" as="geometry" />
        </mxCell>
        <mxCell id="FrjA3dRTfeve2aG1nO1z-29" value="&lt;font style=&quot;font-size: 9px;&quot;&gt;分片3&lt;/font&gt;" style="text;html=1;align=center;verticalAlign=middle;whiteSpace=wrap;rounded=0;" vertex="1" parent="1">
          <mxGeometry x="409.5" y="286" width="60" height="30" as="geometry" />
        </mxCell>
        <mxCell id="FrjA3dRTfeve2aG1nO1z-30" value="&lt;font style=&quot;font-size: 9px;&quot;&gt;分片n&lt;/font&gt;" style="text;html=1;align=center;verticalAlign=middle;whiteSpace=wrap;rounded=0;" vertex="1" parent="1">
          <mxGeometry x="508.5" y="286" width="60" height="30" as="geometry" />
        </mxCell>
      </root>
    </mxGraphModel>
  </diagram>
</mxfile>
